# xmcd
#
# Track frame offsets:
#	150
#	10098
#	21215
#	33901
#	45400
#	55777
#	68166
#	79574
#	89958
#	101264
#	112876
#	124295
#	135180
#	144956
#	155038
#	168537
#	180150
#	192215
#	206080
#	217390
#	229281
#	241977
#	254945
#	265426
#
# Disc length: 3733 seconds
#
# Revision: 1
# Processed by: cddbd v1.4PL0 Copyright (c) Steve Scherf et al.
# Submitted via: audiograbber 1.82.02
#
DISCID=540e9318
DTITLE=Hank Thompson - Dance Ranch - Songs For Rounders
DYEAR=1900
DGENRE=Country
TTITLE0=Beaumont Rag
TTITLE1=Headin' Down The Wrong Highway
TTITLE2=After All The Things I've Done
TTITLE3=Woodchopper's Ball
TTITLE4=Drivin' Nails In My Coffin
TTITLE5=Klishama Klingo
TTITLE6=Bartender's Polka
TTITLE7=Bubbles In My Beer
TTITLE8=Make Room In Your Heart
TTITLE9=Summit Ridge Drive
TTITLE10=I Wouldn't Miss It For The World
TTITLE11=Lawdy, What A Gal
TTITLE12=Three Times Seven
TTITLE13=I'll Be A Bachelor Till I Die
TTITLE14=Drunkards' Blues
TTITLE15=Teach 'Em How To Swim
TTITLE16=Dry Bread
TTITLE17=Cocaine Blues
TTITLE18=Deep Elm
TTITLE19=Bummin' Around
TTITLE20=Little Blossom
TTITLE21=Rovin' Gambler
TTITLE22=Left My Gal In The Mountains
TTITLE23=May I Sleep In Your Barn Tonight Mister
EXTD=
EXTT0=
EXTT1=
EXTT2=
EXTT3=
EXTT4=
EXTT5=
EXTT6=
EXTT7=
EXTT8=
EXTT9=
EXTT10=
EXTT11=
EXTT12=
EXTT13=
EXTT14=
EXTT15=
EXTT16=
EXTT17=
EXTT18=
EXTT19=
EXTT20=
EXTT21=
EXTT22=
EXTT23=
PLAYORDER=
